<?xml version="1.0" standalone="no"?>
<!DOCTYPE svg PUBLIC "-//W3C//DTD SVG 20010904//EN"
 "http://www.w3.org/TR/2001/REC-SVG-20010904/DTD/svg10.dtd">
<svg version="1.0" xmlns="http://www.w3.org/2000/svg"
 width="30.000000pt" height="30.000000pt" viewBox="0 0 30.000000 30.000000"
 preserveAspectRatio="xMidYMid meet">

<g transform="translate(0.000000,30.000000) scale(0.100000,-0.100000)"
fill="#000000" stroke="none">
<path d="M105 261 c-45 -20 -70 -60 -70 -112 0 -42 5 -53 33 -81 28 -28 39
-33 82 -33 43 0 54 5 82 33 28 28 33 39 33 82 0 42 -5 54 -31 81 -33 33 -92
46 -129 30z m115 -69 c0 -5 -16 -16 -35 -25 -33 -16 -37 -16 -70 0 -19 9 -35
20 -35 25 0 4 32 8 70 8 39 0 70 -4 70 -8z m-100 -47 c27 -14 33 -14 60 0 39
20 40 20 40 -15 l0 -30 -70 0 -70 0 0 30 c0 35 1 35 40 15z"/>
</g>
</svg>
