<?xml version="1.0" standalone="no"?>
<!DOCTYPE svg PUBLIC "-//W3C//DTD SVG 20010904//EN"
 "http://www.w3.org/TR/2001/REC-SVG-20010904/DTD/svg10.dtd">
<svg version="1.0" xmlns="http://www.w3.org/2000/svg"
 width="48.000000pt" height="48.000000pt" viewBox="0 0 48.000000 48.000000"
 preserveAspectRatio="xMidYMid meet">

<g transform="translate(0.000000,48.000000) scale(0.100000,-0.100000)"
fill="#000000" stroke="none">
<path d="M153 379 c-100 -64 -99 -217 1 -278 73 -45 181 -19 225 53 45 73 19
181 -53 225 -45 28 -129 28 -173 0z m67 -49 c0 -20 -5 -30 -15 -30 -18 0 -19
14 -5 41 15 27 20 24 20 -11z m70 -17 c0 -7 -7 -13 -15 -13 -10 0 -15 10 -15
33 1 30 1 31 15 13 8 -11 15 -26 15 -33z m-127 9 c-3 -13 -13 -22 -25 -22 -18
0 -19 2 -7 18 15 19 32 32 36 29 1 -2 0 -13 -4 -25z m185 -2 c11 -17 10 -20
-8 -20 -11 0 -20 4 -20 9 0 5 -3 17 -6 25 -9 23 18 11 34 -14z m-198 -80 c0
-23 -4 -30 -20 -30 -16 0 -20 7 -20 30 0 23 4 30 20 30 16 0 20 -7 20 -30z
m70 0 c0 -23 -4 -30 -20 -30 -16 0 -20 7 -20 30 0 23 4 30 20 30 16 0 20 -7
20 -30z m80 0 c0 -23 -4 -30 -20 -30 -16 0 -20 7 -20 30 0 23 4 30 20 30 16 0
20 -7 20 -30z m70 0 c0 -23 -4 -30 -20 -30 -16 0 -20 7 -20 30 0 23 4 30 20
30 16 0 20 -7 20 -30z m-210 -69 c0 -5 3 -17 6 -25 9 -23 -18 -11 -34 14 -11
17 -10 20 8 20 11 0 20 -4 20 -9z m60 -23 c-1 -31 -1 -32 -15 -14 -19 25 -19
46 0 46 10 0 15 -10 15 -32z m70 19 c0 -7 -7 -22 -15 -33 -14 -18 -14 -17 -15
14 0 22 5 32 15 32 8 0 15 -6 15 -13z m58 -7 c-16 -25 -43 -37 -34 -14 3 8 6
20 6 25 0 5 9 9 20 9 18 0 19 -3 8 -20z"/>
</g>
</svg>
