<?xml version="1.0" standalone="no"?>
<!DOCTYPE svg PUBLIC "-//W3C//DTD SVG 20010904//EN"
 "http://www.w3.org/TR/2001/REC-SVG-20010904/DTD/svg10.dtd">
<svg version="1.0" xmlns="http://www.w3.org/2000/svg"
 width="30.000000pt" height="30.000000pt" viewBox="0 0 30.000000 30.000000"
 preserveAspectRatio="xMidYMid meet">

<g transform="translate(0.000000,30.000000) scale(0.100000,-0.100000)"
fill="#000000" stroke="none">
<path d="M95 255 c-36 -35 -32 -73 10 -122 19 -23 35 -46 35 -52 0 -6 5 -11
10 -11 6 0 10 5 10 11 0 6 16 29 35 52 22 26 35 51 35 69 0 39 -40 78 -80 78
-19 0 -40 -9 -55 -25z m71 -46 c10 -17 -13 -36 -27 -22 -12 12 -4 33 11 33 5
0 12 -5 16 -11z"/>
<path d="M40 92 c-28 -23 -20 -39 26 -58 64 -27 186 -11 209 27 10 15 -29 49
-56 49 -30 0 -22 -17 11 -23 17 -4 30 -11 30 -16 0 -27 -129 -41 -189 -20 -39
14 -40 28 -1 36 17 3 30 9 30 14 0 16 -37 10 -60 -9z"/>
</g>
</svg>
