<svg width="11" height="11" viewBox="0 0 11 11" fill="none" xmlns="http://www.w3.org/2000/svg">
<path d="M2.21528 4.76361C3.09528 6.49306 4.51 7.90778 6.2425 8.78778L7.58694 7.44028C7.755 7.27222 7.99639 7.22333 8.20722 7.29056C8.89167 7.51667 9.62806 7.63889 10.3889 7.63889C10.7281 7.63889 11 7.91083 11 8.25V10.3889C11 10.7281 10.7281 11 10.3889 11C4.65056 11 0 6.34944 0 0.611111C0 0.271944 0.275 0 0.611111 0H2.75C3.08917 0 3.36111 0.271944 3.36111 0.611111C3.36111 1.37194 3.48333 2.10833 3.70944 2.79278C3.77667 3.00361 3.72778 3.245 3.55972 3.41306L2.21528 4.76361Z" fill="black"/>
</svg>
