<?xml version="1.0" standalone="no"?>
<!DOCTYPE svg PUBLIC "-//W3C//DTD SVG 20010904//EN"
 "http://www.w3.org/TR/2001/REC-SVG-20010904/DTD/svg10.dtd">
<svg version="1.0" xmlns="http://www.w3.org/2000/svg"
 width="48.000000pt" height="48.000000pt" viewBox="0 0 48.000000 48.000000"
 preserveAspectRatio="xMidYMid meet">

<g transform="translate(0.000000,48.000000) scale(0.100000,-0.100000)"
fill="#000000" stroke="none">
<path d="M191 433 c-13 -3 -26 -13 -28 -24 -4 -14 -11 -17 -29 -13 -17 4 -26
1 -30 -10 -3 -9 -12 -16 -20 -16 -15 0 -19 -25 -6 -34 4 -2 7 -25 6 -50 -1
-27 3 -49 10 -54 7 -4 21 -43 32 -86 10 -44 27 -87 37 -97 26 -24 101 -32 142
-15 39 17 45 36 48 153 2 64 4 73 22 75 17 3 20 12 22 56 2 29 -2 52 -7 52 -6
0 -10 13 -10 29 0 32 -22 46 -49 31 -12 -6 -31 -6 -52 0 -35 10 -47 11 -88 3z
m42 -24 c-4 -15 -8 -17 -14 -8 -8 14 -3 29 11 29 4 0 6 -9 3 -21z m-33 -14 c0
-22 3 -24 30 -18 23 4 30 2 30 -11 0 -10 -9 -16 -25 -16 -13 0 -28 -7 -33 -16
-8 -14 -10 -14 -26 1 -9 9 -23 15 -31 12 -17 -7 -39 18 -30 33 5 8 14 6 31 -5
23 -15 24 -14 24 8 0 13 3 27 7 30 13 14 23 6 23 -18z m90 -4 c0 -25 3 -28 21
-24 19 5 20 4 10 -16 -7 -11 -8 -21 -4 -21 4 0 2 -5 -4 -11 -6 -6 -20 -8 -31
-5 -17 6 -20 13 -15 41 4 26 2 36 -11 41 -20 8 -11 24 15 24 14 0 19 -7 19
-29z m80 15 c0 -8 -4 -18 -10 -21 -17 -11 -11 -25 11 -25 14 0 19 -5 17 -17
-2 -12 -12 -18 -28 -18 -21 0 -25 4 -22 25 1 14 -4 30 -14 37 -9 6 -13 16 -9
22 10 17 55 13 55 -3z m-260 -61 c7 -8 8 -15 2 -15 -5 0 -15 7 -22 15 -7 8 -8
15 -2 15 5 0 15 -7 22 -15z m132 -31 c-2 -10 -4 -31 -3 -47 0 -27 0 -27 -29
-12 -36 18 -42 50 -8 40 17 -6 20 -4 14 10 -3 9 -3 21 0 26 10 16 29 3 26 -17z
m-72 -24 c0 -16 7 -33 16 -38 13 -7 14 -11 3 -17 -8 -5 -14 -4 -17 4 -3 8 -15
9 -38 5 -22 -4 -34 -2 -34 5 0 6 6 11 13 11 7 1 4 7 -7 15 -11 8 -16 21 -13
30 7 17 23 20 32 5 9 -15 25 -12 25 6 0 8 5 12 10 9 6 -3 10 -19 10 -35z m105
-11 c-9 -27 8 -24 20 4 10 22 55 37 55 19 0 -6 -12 -20 -27 -31 l-28 -20 25
-1 c23 -1 23 -2 5 -10 -39 -17 -64 -11 -71 15 -3 14 -3 32 0 41 8 22 28 6 21
-17z m108 6 c0 -6 -7 -11 -16 -13 -12 -3 -15 1 -11 13 7 17 25 17 27 0z m-38
-93 c-3 -8 -5 -26 -5 -42 0 -22 -6 -30 -31 -39 -41 -14 -111 -14 -143 0 -13 6
-26 23 -29 38 -3 14 -8 33 -11 41 -5 13 11 15 109 15 92 0 114 -3 110 -13z
m-13 -112 c-12 -33 -26 -40 -83 -40 -46 0 -64 5 -79 20 -11 11 -20 23 -20 28
0 4 42 7 94 7 79 0 93 -2 88 -15z"/>
</g>
</svg>
