<?xml version="1.0" standalone="no"?>
<!DOCTYPE svg PUBLIC "-//W3C//DTD SVG 20010904//EN"
 "http://www.w3.org/TR/2001/REC-SVG-20010904/DTD/svg10.dtd">
<svg version="1.0" xmlns="http://www.w3.org/2000/svg"
 width="100.000000pt" height="100.000000pt" viewBox="0 0 100.000000 100.000000"
 preserveAspectRatio="xMidYMid meet">

<g transform="translate(0.000000,100.000000) scale(0.100000,-0.100000)"
fill="#000000" stroke="none">
<path d="M318 863 c7 -3 16 -2 19 1 4 3 -2 6 -13 5 -11 0 -14 -3 -6 -6z"/>
<path d="M383 833 c-7 -2 -13 -9 -13 -14 0 -5 8 -4 19 2 22 15 49 6 58 -18 4
-10 15 -24 25 -31 29 -21 21 -27 -27 -24 -64 5 -121 -6 -106 -21 22 -22 10
-27 -68 -27 -56 0 -82 4 -91 15 -16 19 -9 45 15 59 11 6 25 17 31 25 6 8 20
12 33 8 13 -3 21 -1 21 8 0 20 -39 7 -82 -27 -74 -58 -41 -98 79 -98 80 0 81
0 88 -27 10 -44 34 -73 58 -73 25 0 67 26 67 41 0 5 -13 0 -29 -12 -41 -30
-68 -19 -81 34 -6 23 -15 49 -20 59 -12 21 6 28 69 28 62 0 86 -17 77 -56 l-8
-29 -35 40 c-20 22 -33 34 -29 28 9 -16 5 -16 -28 -3 -14 5 -26 6 -26 1 0 -4
18 -15 41 -24 23 -9 38 -21 34 -27 -3 -5 0 -10 8 -10 31 0 51 -41 48 -97 -1
-22 -5 -23 -91 -23 l-90 0 0 -49 c0 -31 5 -51 13 -53 7 -3 18 -44 27 -99 l15
-94 133 -3 c127 -2 134 -2 139 18 4 15 14 20 42 22 27 1 23 3 -19 7 -47 5 -55
9 -58 28 -2 17 6 26 35 39 21 10 44 26 51 36 16 21 35 23 51 4 6 -7 22 -11 36
-8 18 3 27 -1 32 -14 4 -11 13 -24 21 -30 25 -19 10 -48 -28 -55 -35 -6 -35
-6 -4 -8 32 -1 54 14 54 37 0 25 -50 80 -78 85 -15 3 -37 8 -48 12 -16 5 -28
0 -43 -16 l-21 -23 0 27 c0 15 7 30 15 33 11 4 15 21 15 55 l0 49 -90 0 c-87
0 -90 1 -90 23 0 13 6 31 13 41 12 16 14 16 31 -3 37 -41 79 -23 116 49 17 34
18 39 4 51 -8 7 -39 14 -67 17 -42 3 -55 0 -70 -16 -14 -15 -15 -25 -8 -45 8
-20 6 -28 -9 -42 -17 -16 -18 -15 -25 14 -3 17 -3 40 0 52 8 25 -7 58 -54 117
-31 39 -49 47 -78 35z m291 -136 c18 -13 17 -15 -2 -54 -12 -22 -29 -43 -38
-47 -22 -9 -51 1 -58 20 -8 21 20 29 52 15 25 -10 26 -10 8 4 -21 16 -22 16
14 33 l25 12 -28 -3 c-23 -4 -26 -2 -15 12 6 9 -1 4 -16 -11 -15 -16 -33 -28
-41 -28 -18 0 -20 46 -2 53 25 10 84 7 101 -6z"/>
</g>
</svg>
